G04 #@! TF.GenerationSoftware,KiCad,Pcbnew,(6.0.4)*
G04 #@! TF.CreationDate,2022-09-08T18:29:31-05:00*
G04 #@! TF.ProjectId,v2-PowerBook-BLUESCSI-dehij,76322d50-6f77-4657-9242-6f6f6b2d424c,rev?*
G04 #@! TF.SameCoordinates,Original*
G04 #@! TF.FileFunction,Soldermask,Top*
G04 #@! TF.FilePolarity,Negative*
%FSLAX46Y46*%
G04 Gerber Fmt 4.6, Leading zero omitted, Abs format (unit mm)*
G04 Created by KiCad (PCBNEW (6.0.4)) date 2022-09-08 18:29:31*
%MOMM*%
%LPD*%
G01*
G04 APERTURE LIST*
G04 Aperture macros list*
%AMRoundRect*
0 Rectangle with rounded corners*
0 $1 Rounding radius*
0 $2 $3 $4 $5 $6 $7 $8 $9 X,Y pos of 4 corners*
0 Add a 4 corners polygon primitive as box body*
4,1,4,$2,$3,$4,$5,$6,$7,$8,$9,$2,$3,0*
0 Add four circle primitives for the rounded corners*
1,1,$1+$1,$2,$3*
1,1,$1+$1,$4,$5*
1,1,$1+$1,$6,$7*
1,1,$1+$1,$8,$9*
0 Add four rect primitives between the rounded corners*
20,1,$1+$1,$2,$3,$4,$5,0*
20,1,$1+$1,$4,$5,$6,$7,0*
20,1,$1+$1,$6,$7,$8,$9,0*
20,1,$1+$1,$8,$9,$2,$3,0*%
G04 Aperture macros list end*
%ADD10C,2.500000*%
%ADD11RoundRect,0.250000X0.262500X0.450000X-0.262500X0.450000X-0.262500X-0.450000X0.262500X-0.450000X0*%
%ADD12RoundRect,0.250000X-0.262500X-0.450000X0.262500X-0.450000X0.262500X0.450000X-0.262500X0.450000X0*%
%ADD13R,1.600000X0.700000*%
%ADD14R,2.200000X1.200000*%
%ADD15R,1.400000X1.600000*%
%ADD16R,1.400000X1.200000*%
%ADD17R,1.000000X1.500000*%
%ADD18C,1.700000*%
%ADD19R,1.700000X1.700000*%
%ADD20R,1.350000X1.350000*%
%ADD21O,1.350000X1.350000*%
G04 APERTURE END LIST*
D10*
X166650000Y-123500000D03*
X124980000Y-123500000D03*
X82730000Y-123430000D03*
X124980000Y-79700000D03*
X82730000Y-79630000D03*
D11*
X92530144Y-98512352D03*
X90705144Y-98512352D03*
X92530144Y-102542940D03*
X90705144Y-102542940D03*
X92530144Y-104558234D03*
X90705144Y-104558234D03*
X92530144Y-106573528D03*
X90705144Y-106573528D03*
X92530144Y-108588822D03*
X90705144Y-108588822D03*
X92530144Y-110604116D03*
X90705144Y-110604116D03*
X92530144Y-112619410D03*
X90705144Y-112619410D03*
X92530144Y-114634704D03*
X90705144Y-114634704D03*
X92530144Y-116650000D03*
X90705144Y-116650000D03*
X92530144Y-100527646D03*
X90705144Y-100527646D03*
X92530144Y-94481764D03*
X90705144Y-94481764D03*
X92530144Y-92466470D03*
X90705144Y-92466470D03*
X92530144Y-88435882D03*
X90705144Y-88435882D03*
X92530144Y-96497058D03*
X90705144Y-96497058D03*
X92530144Y-90451176D03*
X90705144Y-90451176D03*
X92530144Y-84405294D03*
X90705144Y-84405294D03*
X92530144Y-82390000D03*
X90705144Y-82390000D03*
X92530144Y-86420588D03*
X90705144Y-86420588D03*
D12*
X85667500Y-102542940D03*
X87492500Y-102542940D03*
X85667500Y-104558234D03*
X87492500Y-104558234D03*
X85667500Y-106573528D03*
X87492500Y-106573528D03*
X85667500Y-108588822D03*
X87492500Y-108588822D03*
X85667500Y-110604116D03*
X87492500Y-110604116D03*
X85667500Y-112619410D03*
X87492500Y-112619410D03*
X85667500Y-114634704D03*
X87492500Y-114634704D03*
X85667500Y-116650000D03*
X87492500Y-116650000D03*
X85667500Y-100527646D03*
X87492500Y-100527646D03*
X85667500Y-98512352D03*
X87492500Y-98512352D03*
X85667500Y-94481764D03*
X87492500Y-94481764D03*
X85667500Y-92466470D03*
X87492500Y-92466470D03*
X85667500Y-88435882D03*
X87492500Y-88435882D03*
X85667500Y-96497058D03*
X87492500Y-96497058D03*
X85667500Y-90451176D03*
X87492500Y-90451176D03*
X85667500Y-84405294D03*
X87492500Y-84405294D03*
X85667500Y-82390000D03*
X87492500Y-82390000D03*
X85667500Y-86420588D03*
X87492500Y-86420588D03*
D13*
X154600000Y-84160000D03*
X154600000Y-85260000D03*
X154600000Y-86360000D03*
X154600000Y-87460000D03*
X154600000Y-88560000D03*
D14*
X164700000Y-78610000D03*
D15*
X155100000Y-79510000D03*
D13*
X154600000Y-89660000D03*
D14*
X164700000Y-94110000D03*
D16*
X155100000Y-94110000D03*
D13*
X154600000Y-90760000D03*
X154600000Y-91860000D03*
X154600000Y-92960000D03*
D17*
X93980000Y-123190000D03*
X95280000Y-123190000D03*
X99060000Y-123190000D03*
X100360000Y-123190000D03*
X101660000Y-123190000D03*
D18*
X118110000Y-102870000D03*
D19*
X118110000Y-118110000D03*
D18*
X120650000Y-102870000D03*
X120650000Y-118110000D03*
X123190000Y-102870000D03*
X123190000Y-118110000D03*
X125730000Y-102870000D03*
X125730000Y-118110000D03*
X128270000Y-102870000D03*
X128270000Y-118110000D03*
X130810000Y-102870000D03*
X130810000Y-118110000D03*
X133350000Y-102870000D03*
X133350000Y-118110000D03*
X135890000Y-102870000D03*
X135890000Y-118110000D03*
X138430000Y-102870000D03*
X138430000Y-118110000D03*
X140970000Y-102870000D03*
X140970000Y-118110000D03*
X143510000Y-102870000D03*
X143510000Y-118110000D03*
X146050000Y-102870000D03*
X146050000Y-118110000D03*
X148590000Y-102870000D03*
X148590000Y-118110000D03*
X151130000Y-102870000D03*
X151130000Y-118110000D03*
X153670000Y-102870000D03*
X153670000Y-118110000D03*
X156210000Y-102870000D03*
X156210000Y-118110000D03*
X158750000Y-102870000D03*
X158750000Y-118110000D03*
X161290000Y-102870000D03*
X161290000Y-118110000D03*
X163830000Y-102870000D03*
X163830000Y-118110000D03*
X166370000Y-102870000D03*
X166370000Y-118110000D03*
D20*
X78740000Y-120650000D03*
D21*
X76740000Y-120650000D03*
X78740000Y-118650000D03*
X76740000Y-118650000D03*
X78740000Y-116650000D03*
X76740000Y-116650000D03*
X78740000Y-114650000D03*
X76740000Y-114650000D03*
X78740000Y-112650000D03*
X76740000Y-112650000D03*
X78740000Y-110650000D03*
X76740000Y-110650000D03*
X78740000Y-108650000D03*
X76740000Y-108650000D03*
X78740000Y-106650000D03*
X76740000Y-106650000D03*
X78740000Y-104650000D03*
X76740000Y-104650000D03*
X78740000Y-102650000D03*
X76740000Y-102650000D03*
X78740000Y-100650000D03*
X76740000Y-100650000D03*
X78740000Y-98650000D03*
X76740000Y-98650000D03*
X78740000Y-96650000D03*
X76740000Y-96650000D03*
X78740000Y-94650000D03*
X76740000Y-94650000D03*
X78740000Y-92650000D03*
X76740000Y-92650000D03*
X78740000Y-90650000D03*
X76740000Y-90650000D03*
X78740000Y-88650000D03*
X76740000Y-88650000D03*
X78740000Y-86650000D03*
X76740000Y-86650000D03*
X78740000Y-84650000D03*
X76740000Y-84650000D03*
X78740000Y-82650000D03*
X76740000Y-82650000D03*
M02*
