M48
; DRILL file {KiCad (6.0.4)} date Thu Sep  8 18:29:42 2022
; FORMAT={-:-/ absolute / metric / decimal}
; #@! TF.CreationDate,2022-09-08T18:29:42-05:00
; #@! TF.GenerationSoftware,Kicad,Pcbnew,(6.0.4)
; #@! TF.FileFunction,Plated,1,2,PTH
FMAT,2
METRIC
; #@! TA.AperFunction,Plated,PTH,ViaDrill
T1C0.400
; #@! TA.AperFunction,Plated,PTH,ViaDrill
T2C0.500
; #@! TA.AperFunction,Plated,PTH,ComponentDrill
T3C0.800
; #@! TA.AperFunction,Plated,PTH,ComponentDrill
T4C1.000
%
G90
G05
T1
X89.0Y-82.39
X89.0Y-84.405
X89.0Y-86.421
X89.0Y-88.436
X89.0Y-90.451
X89.0Y-92.466
X89.0Y-94.482
X89.0Y-96.497
X89.0Y-98.512
X89.0Y-100.528
X89.0Y-102.543
X89.0Y-104.558
X89.0Y-106.574
X89.0Y-108.589
X89.0Y-110.604
X89.0Y-112.619
X89.0Y-114.635
X89.0Y-116.65
X101.428Y-121.808
X117.93Y-108.7
X120.69Y-106.64
X123.33Y-105.09
X125.36Y-104.98
X126.92Y-101.18
X128.23Y-110.52
X129.32Y-98.57
X130.68Y-112.39
X132.0Y-96.64
X133.62Y-94.66
X135.87Y-100.55
X138.48Y-86.4
X142.26Y-93.19
X142.612Y-89.727
X144.302Y-87.711
X144.43Y-91.1
X146.16Y-85.33
X147.13Y-88.57
X147.48Y-84.33
X151.17Y-82.41
X152.56Y-86.42
X152.56Y-90.59
X152.57Y-88.63
X153.155Y-85.26
X156.24Y-88.51
X156.49Y-116.04
X158.79Y-114.56
T2
X133.26Y-109.99
X137.64Y-109.99
X143.57Y-109.99
X146.04Y-109.99
X148.6Y-109.99
X150.84Y-109.99
X152.61Y-93.12
X154.59Y-109.99
X155.06Y-96.19
X156.51Y-87.02
X161.09Y-109.99
X161.85Y-93.0
X167.02Y-93.07
X167.18Y-105.56
X168.36Y-87.47
T3
X76.74Y-82.65
X76.74Y-84.65
X76.74Y-86.65
X76.74Y-88.65
X76.74Y-90.65
X76.74Y-92.65
X76.74Y-94.65
X76.74Y-96.65
X76.74Y-98.65
X76.74Y-100.65
X76.74Y-102.65
X76.74Y-104.65
X76.74Y-106.65
X76.74Y-108.65
X76.74Y-110.65
X76.74Y-112.65
X76.74Y-114.65
X76.74Y-116.65
X76.74Y-118.65
X76.74Y-120.65
X78.74Y-82.65
X78.74Y-84.65
X78.74Y-86.65
X78.74Y-88.65
X78.74Y-90.65
X78.74Y-92.65
X78.74Y-94.65
X78.74Y-96.65
X78.74Y-98.65
X78.74Y-100.65
X78.74Y-102.65
X78.74Y-104.65
X78.74Y-106.65
X78.74Y-108.65
X78.74Y-110.65
X78.74Y-112.65
X78.74Y-114.65
X78.74Y-116.65
X78.74Y-118.65
X78.74Y-120.65
T4
X118.11Y-102.87
X118.11Y-118.11
X120.65Y-102.87
X120.65Y-118.11
X123.19Y-102.87
X123.19Y-118.11
X125.73Y-102.87
X125.73Y-118.11
X128.27Y-102.87
X128.27Y-118.11
X130.81Y-102.87
X130.81Y-118.11
X133.35Y-102.87
X133.35Y-118.11
X135.89Y-102.87
X135.89Y-118.11
X138.43Y-102.87
X138.43Y-118.11
X140.97Y-102.87
X140.97Y-118.11
X143.51Y-102.87
X143.51Y-118.11
X146.05Y-102.87
X146.05Y-118.11
X148.59Y-102.87
X148.59Y-118.11
X151.13Y-102.87
X151.13Y-118.11
X153.67Y-102.87
X153.67Y-118.11
X156.21Y-102.87
X156.21Y-118.11
X158.75Y-102.87
X158.75Y-118.11
X161.29Y-102.87
X161.29Y-118.11
X163.83Y-102.87
X163.83Y-118.11
X166.37Y-102.87
X166.37Y-118.11
T0
M30
