G04 #@! TF.GenerationSoftware,KiCad,Pcbnew,(6.0.4)*
G04 #@! TF.CreationDate,2022-09-08T18:29:31-05:00*
G04 #@! TF.ProjectId,v2-PowerBook-BLUESCSI-dehij,76322d50-6f77-4657-9242-6f6f6b2d424c,rev?*
G04 #@! TF.SameCoordinates,Original*
G04 #@! TF.FileFunction,Soldermask,Bot*
G04 #@! TF.FilePolarity,Negative*
%FSLAX46Y46*%
G04 Gerber Fmt 4.6, Leading zero omitted, Abs format (unit mm)*
G04 Created by KiCad (PCBNEW (6.0.4)) date 2022-09-08 18:29:31*
%MOMM*%
%LPD*%
G01*
G04 APERTURE LIST*
%ADD10C,2.500000*%
%ADD11C,1.700000*%
%ADD12R,1.700000X1.700000*%
%ADD13R,1.350000X1.350000*%
%ADD14O,1.350000X1.350000*%
G04 APERTURE END LIST*
D10*
X166650000Y-123500000D03*
X124980000Y-123500000D03*
X82730000Y-123430000D03*
X124980000Y-79700000D03*
X82730000Y-79630000D03*
D11*
X118110000Y-102870000D03*
D12*
X118110000Y-118110000D03*
D11*
X120650000Y-102870000D03*
X120650000Y-118110000D03*
X123190000Y-102870000D03*
X123190000Y-118110000D03*
X125730000Y-102870000D03*
X125730000Y-118110000D03*
X128270000Y-102870000D03*
X128270000Y-118110000D03*
X130810000Y-102870000D03*
X130810000Y-118110000D03*
X133350000Y-102870000D03*
X133350000Y-118110000D03*
X135890000Y-102870000D03*
X135890000Y-118110000D03*
X138430000Y-102870000D03*
X138430000Y-118110000D03*
X140970000Y-102870000D03*
X140970000Y-118110000D03*
X143510000Y-102870000D03*
X143510000Y-118110000D03*
X146050000Y-102870000D03*
X146050000Y-118110000D03*
X148590000Y-102870000D03*
X148590000Y-118110000D03*
X151130000Y-102870000D03*
X151130000Y-118110000D03*
X153670000Y-102870000D03*
X153670000Y-118110000D03*
X156210000Y-102870000D03*
X156210000Y-118110000D03*
X158750000Y-102870000D03*
X158750000Y-118110000D03*
X161290000Y-102870000D03*
X161290000Y-118110000D03*
X163830000Y-102870000D03*
X163830000Y-118110000D03*
X166370000Y-102870000D03*
X166370000Y-118110000D03*
D13*
X78740000Y-120650000D03*
D14*
X76740000Y-120650000D03*
X78740000Y-118650000D03*
X76740000Y-118650000D03*
X78740000Y-116650000D03*
X76740000Y-116650000D03*
X78740000Y-114650000D03*
X76740000Y-114650000D03*
X78740000Y-112650000D03*
X76740000Y-112650000D03*
X78740000Y-110650000D03*
X76740000Y-110650000D03*
X78740000Y-108650000D03*
X76740000Y-108650000D03*
X78740000Y-106650000D03*
X76740000Y-106650000D03*
X78740000Y-104650000D03*
X76740000Y-104650000D03*
X78740000Y-102650000D03*
X76740000Y-102650000D03*
X78740000Y-100650000D03*
X76740000Y-100650000D03*
X78740000Y-98650000D03*
X76740000Y-98650000D03*
X78740000Y-96650000D03*
X76740000Y-96650000D03*
X78740000Y-94650000D03*
X76740000Y-94650000D03*
X78740000Y-92650000D03*
X76740000Y-92650000D03*
X78740000Y-90650000D03*
X76740000Y-90650000D03*
X78740000Y-88650000D03*
X76740000Y-88650000D03*
X78740000Y-86650000D03*
X76740000Y-86650000D03*
X78740000Y-84650000D03*
X76740000Y-84650000D03*
X78740000Y-82650000D03*
X76740000Y-82650000D03*
M02*
